<svg width="68" height="68" viewBox="0 0 68 68" fill="none" xmlns="http://www.w3.org/2000/svg">
<path d="M33.9993 62.3334C33.3382 62.3334 32.7716 62.1445 32.2994 61.7667C31.8271 61.3889 31.473 60.8931 31.2369 60.2792C30.3396 57.6347 29.2063 55.1556 27.8368 52.8417C26.5146 50.5278 24.6493 47.8125 22.241 44.6959C19.8327 41.5792 17.873 38.6042 16.3618 35.7709C14.898 32.9375 14.166 29.5139 14.166 25.5C14.166 19.975 16.0785 15.3 19.9035 11.475C23.7757 7.6028 28.4743 5.66669 33.9993 5.66669C39.5244 5.66669 44.1993 7.6028 48.0243 11.475C51.8966 15.3 53.8327 19.975 53.8327 25.5C53.8327 29.7972 53.0063 33.3861 51.3535 36.2667C49.748 39.1 47.8827 41.9097 45.7577 44.6959C43.2077 48.0959 41.2716 50.9292 39.9493 53.1959C38.6743 55.4153 37.6118 57.7764 36.7618 60.2792C36.5257 60.9403 36.148 61.4597 35.6285 61.8375C35.1563 62.1681 34.6132 62.3334 33.9993 62.3334ZM33.9993 32.5834C35.9827 32.5834 37.6591 31.8986 39.0285 30.5292C40.398 29.1597 41.0827 27.4834 41.0827 25.5C41.0827 23.5167 40.398 21.8403 39.0285 20.4709C37.6591 19.1014 35.9827 18.4167 33.9993 18.4167C32.016 18.4167 30.3396 19.1014 28.9702 20.4709C27.6007 21.8403 26.916 23.5167 26.916 25.5C26.916 27.4834 27.6007 29.1597 28.9702 30.5292C30.3396 31.8986 32.016 32.5834 33.9993 32.5834Z" fill="#FF0000"/>
</svg>
